<svg width="1200" height="900" viewBox="0 0 1200 900" fill="none" xmlns="http://www.w3.org/2000/svg">
  <rect width="1200" height="900" rx="40" fill="#0E172A"/>
  <rect x="80" y="88" width="1040" height="724" rx="28" fill="#13213B"/>
  <rect x="148" y="180" width="360" height="24" rx="12" fill="#38BDF8"/>
  <rect x="148" y="236" width="560" height="48" rx="12" fill="#E2E8F0"/>
  <rect x="148" y="304" width="612" height="20" rx="10" fill="#94A3B8"/>
  <rect x="148" y="338" width="460" height="20" rx="10" fill="#94A3B8"/>
  <rect x="148" y="390" width="220" height="54" rx="12" fill="#38BDF8"/>
  <rect x="386" y="390" width="260" height="54" rx="12" fill="#1E293B"/>
  <rect x="760" y="236" width="276" height="408" rx="20" fill="#0F1C34"/>
  <rect x="798" y="280" width="200" height="28" rx="10" fill="#E2E8F0"/>
  <rect x="798" y="326" width="164" height="18" rx="9" fill="#94A3B8"/>
  <rect x="798" y="380" width="200" height="200" rx="16" fill="#13213B"/>
</svg>
